<svg width="102" height="16" viewBox="0 0 102 16" fill="none" xmlns="http://www.w3.org/2000/svg">
<path d="M69.2152 1.2527C68.8677 0.926927 68.3778 0.728225 67.853 0.700168C67.3283 0.672111 66.8114 0.816988 66.4159 1.10303L59.5012 6.06253V2.29585C59.5012 1.86161 59.2923 1.44516 58.9203 1.13811C58.5483 0.831057 58.0438 0.658557 57.5178 0.658557C56.9917 0.658557 56.4873 0.831057 56.1153 1.13811C55.7433 1.44516 55.5343 1.86161 55.5343 2.29585V13.5233C55.5343 13.7382 55.5857 13.951 55.6854 14.1496C55.7851 14.3481 55.9312 14.5284 56.1154 14.6803C56.2997 14.8321 56.5183 14.9525 56.759 15.0346C56.9996 15.1166 57.2574 15.1587 57.5178 15.1584C58.0434 15.1584 58.5475 14.9862 58.9193 14.6796C59.2912 14.373 59.5005 13.9572 59.5012 13.5233V10.4234L61.0781 9.2895L66.7812 14.6345C66.9531 14.7961 67.1619 14.9281 67.3956 15.0231C67.6293 15.1181 67.8834 15.1741 68.1434 15.188C68.4033 15.2019 68.664 15.1734 68.9106 15.1041C69.1573 15.0348 69.3849 14.9261 69.5806 14.7842C69.7779 14.6422 69.9393 14.4693 70.0553 14.2756C70.1713 14.0819 70.2397 13.8711 70.2566 13.6554C70.2734 13.4398 70.2384 13.2235 70.1535 13.019C70.0686 12.8146 69.9355 12.6261 69.7619 12.4643L64.0588 7.11476L69.0339 3.56351C69.2297 3.42161 69.3896 3.24928 69.5046 3.05636C69.6197 2.86343 69.6876 2.65369 69.7044 2.4391C69.7212 2.22452 69.6867 2.0093 69.6028 1.80574C69.5188 1.60217 69.3872 1.41425 69.2152 1.2527V1.2527ZM100.016 0.658557H89.8163C89.5558 0.658557 89.2979 0.700907 89.0572 0.783188C88.8166 0.86547 88.5979 0.986072 88.4137 1.13811C88.2295 1.29015 88.0835 1.47064 87.9838 1.66929C87.8841 1.86793 87.8328 2.08084 87.8328 2.29585C87.8328 2.73009 88.0418 3.14654 88.4137 3.45359C88.7857 3.76064 89.2902 3.93314 89.8163 3.93314H92.9343V13.5233C92.9343 13.7382 92.9856 13.951 93.0853 14.1496C93.185 14.3481 93.3312 14.5284 93.5154 14.6803C93.6996 14.8321 93.9183 14.9525 94.1589 15.0346C94.3995 15.1166 94.6574 15.1587 94.9177 15.1584C95.4433 15.1584 95.9474 14.9862 96.3193 14.6796C96.6912 14.373 96.9005 13.9572 96.9012 13.5233V3.93314H100.016C100.543 3.93314 101.047 3.76064 101.419 3.45359C101.791 3.14654 102 2.73009 102 2.29585C102 1.86161 101.791 1.44516 101.419 1.13811C101.047 0.831057 100.543 0.658557 100.016 0.658557V0.658557ZM86.1323 13.5233C86.1323 13.3079 86.0808 13.0947 85.9808 12.8957C85.8808 12.6968 85.7342 12.5161 85.5494 12.364C85.3646 12.2119 85.1453 12.0914 84.9041 12.0094C84.6628 11.9274 84.4043 11.8854 84.1433 11.886H76.5007V9.54575H83.017C83.5431 9.54575 84.0476 9.37325 84.4195 9.0662C84.7915 8.75915 85.0005 8.34269 85.0005 7.90846C85.0005 7.47422 84.7915 7.05777 84.4195 6.75072C84.0476 6.44366 83.5431 6.27116 83.017 6.27116H76.5007V3.93314H84.1433C84.6694 3.93314 85.1739 3.76064 85.5459 3.45359C85.9178 3.14654 86.1268 2.73009 86.1268 2.29585C86.1268 1.86161 85.9178 1.44516 85.5459 1.13811C85.1739 0.831057 84.6694 0.658557 84.1433 0.658557H74.803C74.5067 0.658258 74.2132 0.706212 73.9394 0.79967C73.6656 0.893128 73.4168 1.03026 73.2073 1.2032C72.9978 1.37614 72.8317 1.5815 72.7185 1.80752C72.6053 2.03354 72.5472 2.27578 72.5475 2.52036V13.2988C72.5475 13.5432 72.6059 13.7852 72.7193 14.011C72.8327 14.2367 72.9988 14.4418 73.2083 14.6145C73.4178 14.7872 73.6664 14.9241 73.9401 15.0175C74.2137 15.1108 74.5069 15.1587 74.803 15.1584H84.1433C84.4041 15.1593 84.6626 15.1176 84.9039 15.0359C85.1451 14.9541 85.3644 14.8338 85.5492 14.6819C85.734 14.53 85.8807 14.3494 85.9807 14.1506C86.0808 13.9518 86.1323 13.7386 86.1323 13.5233V13.5233ZM26.0682 0.191406C24.2752 0.191406 22.5224 0.630304 21.0316 1.4526C19.5408 2.27489 18.3788 3.44365 17.6926 4.81108C17.0065 6.17851 16.827 7.68318 17.1768 9.13484C17.5266 10.5865 18.39 11.9199 19.6578 12.9665C20.9257 14.0131 22.541 14.7258 24.2996 15.0146C26.0582 15.3033 27.881 15.1551 29.5375 14.5887C31.194 14.0223 32.6099 13.0631 33.606 11.8325C34.6022 10.6018 35.1339 9.15497 35.1339 7.67488C35.1339 5.69014 34.1787 3.78669 32.4786 2.38327C30.7785 0.979842 28.4726 0.191406 26.0682 0.191406V0.191406ZM26.0682 11.886C25.0591 11.8865 24.0725 11.6399 23.2332 11.1774C22.3939 10.715 21.7396 10.0574 21.3531 9.28799C20.9666 8.51855 20.8651 7.67175 21.0617 6.85472C21.2582 6.03768 21.7439 5.28712 22.4572 4.69795C23.1705 4.10878 24.0795 3.70748 25.0692 3.54481C26.0589 3.38214 27.0848 3.4654 28.0171 3.78407C28.9494 4.10273 29.7463 4.64248 30.307 5.33505C30.8677 6.02762 31.167 6.8419 31.167 7.67488C31.167 8.79136 30.6299 9.86214 29.6737 10.6518C28.7176 11.4415 27.4207 11.8854 26.0682 11.886V11.886ZM49.4713 11.0742C48.5505 11.6335 47.427 11.9181 46.2846 11.8815C44.9949 11.8329 43.7743 11.3865 42.8643 10.6307C41.9542 9.87478 41.4209 8.86448 41.3699 7.79961C41.3413 6.99289 41.5945 6.19642 42.0992 5.50519C42.6038 4.81396 43.3387 4.25717 44.2162 3.90122C45.0937 3.54527 46.0767 3.4052 47.0479 3.49771C48.0192 3.59022 48.9377 3.91142 49.6939 4.42297C50.0721 4.66724 50.5464 4.78753 51.0256 4.76075C51.5047 4.73396 51.955 4.56198 52.2899 4.27784C52.4859 4.11754 52.6391 3.92511 52.7395 3.71297C52.8399 3.50082 52.8854 3.27367 52.873 3.04613C52.8606 2.8186 52.7905 2.59574 52.6674 2.39191C52.5443 2.18808 52.3708 2.00781 52.1581 1.86272C50.4444 0.711459 48.2776 0.120639 46.0703 0.202745C44.8798 0.224187 43.7061 0.438984 42.6161 0.834874C41.5262 1.23076 40.5413 1.79999 39.7179 2.51006C38.8944 3.22012 38.2485 4.05712 37.8169 4.97327C37.3853 5.88941 37.1765 6.86675 37.2025 7.8495C37.2285 8.83224 37.4887 9.80114 37.9683 10.7009C38.4479 11.6006 39.1374 12.4135 39.9976 13.0933C40.8578 13.773 41.8718 14.3063 42.9816 14.6625C44.0914 15.0188 45.2754 15.1911 46.4659 15.1697C48.3977 15.1723 50.2791 14.661 51.8312 13.7116C52.0827 13.5595 52.2872 13.3607 52.4282 13.1312C52.5692 12.9017 52.6427 12.6479 52.6427 12.3906C52.6427 12.1333 52.5692 11.8796 52.4282 11.6501C52.2872 11.4205 52.0827 11.2217 51.8312 11.0697C51.4889 10.862 51.0751 10.7505 50.6503 10.7513C50.2256 10.7521 49.8124 10.8653 49.4713 11.0742V11.0742ZM11.3434 10.0129C11.7178 9.9243 12.069 9.77896 12.3791 9.5843C14.3021 8.38468 14.7636 7.2032 14.7416 5.52962C14.7128 4.22474 14.0622 2.98178 12.931 2.07004C11.7997 1.1583 10.2789 0.651181 8.69787 0.658557H2.56894C1.8877 0.658557 1.23437 0.881947 0.752664 1.27958C0.270957 1.67722 0.000340629 2.21653 0.000340629 2.77888V13.2104C-0.00949076 13.6854 0.193798 14.1467 0.571107 14.5054C0.948415 14.8642 1.47309 15.0951 2.04423 15.1538C2.35924 15.1791 2.67717 15.1498 2.97761 15.0676C3.27805 14.9854 3.55434 14.8523 3.78874 14.6767C4.02314 14.5012 4.21046 14.2871 4.33866 14.0482C4.46687 13.8094 4.53312 13.551 4.53316 13.2898V10.4823H6.80233L10.7555 14.4463C10.9214 14.6164 11.1266 14.7576 11.3592 14.8617C11.5917 14.9658 11.847 15.0307 12.1102 15.0527C12.3734 15.0746 12.6393 15.0532 12.8924 14.9897C13.1455 14.9261 13.3808 14.8217 13.5846 14.6824C13.7884 14.5432 13.9566 14.3719 14.0796 14.1785C14.2025 13.9852 14.2777 13.7736 14.3007 13.556C14.3238 13.3385 14.2943 13.1193 14.2138 12.9113C14.1334 12.7032 14.0037 12.5104 13.8323 12.3441L11.3434 10.0129ZM8.79127 7.20773H4.53316V3.93314H8.78303C9.30908 3.93314 9.81358 4.10564 10.1855 4.4127C10.5575 4.71975 10.7665 5.1362 10.7665 5.57044C10.7665 6.00468 10.5575 6.42113 10.1855 6.72818C9.81358 7.03523 9.30908 7.20773 8.78303 7.20773H8.79127Z" fill="white"/>
</svg>

